<mxfile host="app.diagrams.net" modified="2023-05-04T01:58:37.515Z" agent="Mozilla/5.0 (Macintosh; Intel Mac OS X 10_15_7) AppleWebKit/537.36 (KHTML, like Gecko) Chrome/112.0.0.0 Safari/537.36" etag="6GlNmnD7GPexdiqtcU2A" version="21.2.6" type="github">
  <diagram name="페이지-1" id="kJhwUa7qlQonYNo-6Tl3">
    <mxGraphModel dx="1430" dy="780" grid="1" gridSize="10" guides="1" tooltips="1" connect="1" arrows="1" fold="1" page="1" pageScale="1" pageWidth="827" pageHeight="1169" math="0" shadow="0">
      <root>
        <mxCell id="0" />
        <mxCell id="1" parent="0" />
        <mxCell id="dUK_gJdnmktwVG0MNblF-1" value="사용자" style="shape=umlActor;verticalLabelPosition=bottom;verticalAlign=top;html=1;" parent="1" vertex="1">
          <mxGeometry x="50" y="560" width="30" height="60" as="geometry" />
        </mxCell>
        <mxCell id="dUK_gJdnmktwVG0MNblF-2" value="게시판 서비스" style="shape=umlFrame;whiteSpace=wrap;html=1;pointerEvents=0;width=106;height=20;" parent="1" vertex="1">
          <mxGeometry x="120" y="360" width="560" height="600" as="geometry" />
        </mxCell>
        <mxCell id="nWxZONxNKbPEm1r-1Ae_-7" style="edgeStyle=orthogonalEdgeStyle;rounded=0;orthogonalLoop=1;jettySize=auto;html=1;exitX=0;exitY=0.5;exitDx=0;exitDy=0;entryX=1;entryY=0.3333333333333333;entryDx=0;entryDy=0;entryPerimeter=0;endArrow=none;endFill=0;" edge="1" parent="1" source="gmeVBhwJLjxL1ppNdEiM-7" target="dUK_gJdnmktwVG0MNblF-1">
          <mxGeometry relative="1" as="geometry" />
        </mxCell>
        <mxCell id="gmeVBhwJLjxL1ppNdEiM-7" value="회원 가입" style="rounded=1;whiteSpace=wrap;html=1;arcSize=40;fontColor=#000000;fillColor=#ffffc0;strokeColor=#ff0000;" parent="1" vertex="1">
          <mxGeometry x="160" y="560" width="120" height="40" as="geometry" />
        </mxCell>
        <mxCell id="nWxZONxNKbPEm1r-1Ae_-8" style="rounded=0;orthogonalLoop=1;jettySize=auto;html=1;exitX=0;exitY=0.5;exitDx=0;exitDy=0;endArrow=none;endFill=0;" edge="1" parent="1" source="gmeVBhwJLjxL1ppNdEiM-10">
          <mxGeometry relative="1" as="geometry">
            <mxPoint x="80" y="580" as="targetPoint" />
          </mxGeometry>
        </mxCell>
        <mxCell id="nWxZONxNKbPEm1r-1Ae_-15" style="rounded=0;orthogonalLoop=1;jettySize=auto;html=1;exitX=1;exitY=0;exitDx=0;exitDy=0;entryX=0.5;entryY=1;entryDx=0;entryDy=0;dashed=1;" edge="1" parent="1" source="gmeVBhwJLjxL1ppNdEiM-10" target="gmeVBhwJLjxL1ppNdEiM-12">
          <mxGeometry relative="1" as="geometry" />
        </mxCell>
        <mxCell id="nWxZONxNKbPEm1r-1Ae_-24" style="rounded=0;orthogonalLoop=1;jettySize=auto;html=1;exitX=1;exitY=0.5;exitDx=0;exitDy=0;entryX=0;entryY=0.5;entryDx=0;entryDy=0;endArrow=none;endFill=0;" edge="1" parent="1" source="gmeVBhwJLjxL1ppNdEiM-10" target="nWxZONxNKbPEm1r-1Ae_-21">
          <mxGeometry relative="1" as="geometry" />
        </mxCell>
        <mxCell id="gmeVBhwJLjxL1ppNdEiM-10" value="게시판 보기" style="rounded=1;whiteSpace=wrap;html=1;arcSize=40;fontColor=#000000;fillColor=#ffffc0;strokeColor=#ff0000;" parent="1" vertex="1">
          <mxGeometry x="160" y="660" width="120" height="40" as="geometry" />
        </mxCell>
        <mxCell id="nWxZONxNKbPEm1r-1Ae_-9" style="rounded=0;orthogonalLoop=1;jettySize=auto;html=1;exitX=0;exitY=0.5;exitDx=0;exitDy=0;strokeColor=none;" edge="1" parent="1" source="gmeVBhwJLjxL1ppNdEiM-11">
          <mxGeometry relative="1" as="geometry">
            <mxPoint x="80" y="580" as="targetPoint" />
          </mxGeometry>
        </mxCell>
        <mxCell id="nWxZONxNKbPEm1r-1Ae_-10" style="rounded=0;orthogonalLoop=1;jettySize=auto;html=1;exitX=0;exitY=0.5;exitDx=0;exitDy=0;endArrow=none;endFill=0;" edge="1" parent="1" source="gmeVBhwJLjxL1ppNdEiM-11">
          <mxGeometry relative="1" as="geometry">
            <mxPoint x="80" y="580" as="targetPoint" />
          </mxGeometry>
        </mxCell>
        <mxCell id="nWxZONxNKbPEm1r-1Ae_-16" style="rounded=0;orthogonalLoop=1;jettySize=auto;html=1;exitX=1;exitY=0.25;exitDx=0;exitDy=0;entryX=0.5;entryY=1;entryDx=0;entryDy=0;dashed=1;" edge="1" parent="1" source="gmeVBhwJLjxL1ppNdEiM-11" target="gmeVBhwJLjxL1ppNdEiM-12">
          <mxGeometry relative="1" as="geometry">
            <mxPoint x="330" y="440" as="targetPoint" />
          </mxGeometry>
        </mxCell>
        <mxCell id="nWxZONxNKbPEm1r-1Ae_-25" style="rounded=0;orthogonalLoop=1;jettySize=auto;html=1;exitX=1;exitY=0.5;exitDx=0;exitDy=0;entryX=0;entryY=0.5;entryDx=0;entryDy=0;endArrow=none;endFill=0;" edge="1" parent="1" source="gmeVBhwJLjxL1ppNdEiM-11" target="nWxZONxNKbPEm1r-1Ae_-21">
          <mxGeometry relative="1" as="geometry">
            <Array as="points">
              <mxPoint x="540" y="730" />
            </Array>
          </mxGeometry>
        </mxCell>
        <mxCell id="gmeVBhwJLjxL1ppNdEiM-11" value="게시글 보기" style="rounded=1;whiteSpace=wrap;html=1;arcSize=40;fontColor=#000000;fillColor=#ffffc0;strokeColor=#ff0000;" parent="1" vertex="1">
          <mxGeometry x="160" y="760" width="120" height="40" as="geometry" />
        </mxCell>
        <mxCell id="nWxZONxNKbPEm1r-1Ae_-11" style="rounded=0;orthogonalLoop=1;jettySize=auto;html=1;exitX=0;exitY=0.5;exitDx=0;exitDy=0;endArrow=none;endFill=0;" edge="1" parent="1" source="gmeVBhwJLjxL1ppNdEiM-12">
          <mxGeometry relative="1" as="geometry">
            <mxPoint x="80" y="580" as="targetPoint" />
          </mxGeometry>
        </mxCell>
        <mxCell id="nWxZONxNKbPEm1r-1Ae_-13" value="&amp;lt;&amp;lt;include&amp;gt;&amp;gt;" style="edgeStyle=orthogonalEdgeStyle;rounded=0;orthogonalLoop=1;jettySize=auto;html=1;exitX=1;exitY=0.5;exitDx=0;exitDy=0;entryX=0;entryY=0.5;entryDx=0;entryDy=0;dashed=1;" edge="1" parent="1" source="gmeVBhwJLjxL1ppNdEiM-12" target="gmeVBhwJLjxL1ppNdEiM-13">
          <mxGeometry relative="1" as="geometry">
            <mxPoint as="offset" />
          </mxGeometry>
        </mxCell>
        <mxCell id="gmeVBhwJLjxL1ppNdEiM-12" value="회원 로그인" style="rounded=1;whiteSpace=wrap;html=1;arcSize=40;fontColor=#000000;fillColor=#ffffc0;strokeColor=#ff0000;" parent="1" vertex="1">
          <mxGeometry x="280" y="400" width="120" height="40" as="geometry" />
        </mxCell>
        <mxCell id="nWxZONxNKbPEm1r-1Ae_-23" style="rounded=0;orthogonalLoop=1;jettySize=auto;html=1;exitX=1;exitY=0.5;exitDx=0;exitDy=0;entryX=0;entryY=0.5;entryDx=0;entryDy=0;endArrow=none;endFill=0;" edge="1" parent="1" source="gmeVBhwJLjxL1ppNdEiM-13" target="nWxZONxNKbPEm1r-1Ae_-21">
          <mxGeometry relative="1" as="geometry" />
        </mxCell>
        <mxCell id="gmeVBhwJLjxL1ppNdEiM-13" value="인증" style="rounded=1;whiteSpace=wrap;html=1;arcSize=40;fontColor=#000000;fillColor=#ffffc0;strokeColor=#ff0000;" parent="1" vertex="1">
          <mxGeometry x="520" y="400" width="120" height="40" as="geometry" />
        </mxCell>
        <mxCell id="nWxZONxNKbPEm1r-1Ae_-14" value="&amp;lt;&amp;lt;extend&amp;gt;&amp;gt;" style="rounded=0;orthogonalLoop=1;jettySize=auto;html=1;exitX=0;exitY=0.5;exitDx=0;exitDy=0;entryX=1;entryY=0.5;entryDx=0;entryDy=0;dashed=1;" edge="1" parent="1" source="gmeVBhwJLjxL1ppNdEiM-14" target="gmeVBhwJLjxL1ppNdEiM-12">
          <mxGeometry relative="1" as="geometry" />
        </mxCell>
        <mxCell id="gmeVBhwJLjxL1ppNdEiM-14" value="로그인 실패" style="rounded=1;whiteSpace=wrap;html=1;arcSize=40;fontColor=#000000;fillColor=#ffffc0;strokeColor=#ff0000;" parent="1" vertex="1">
          <mxGeometry x="520" y="480" width="120" height="40" as="geometry" />
        </mxCell>
        <mxCell id="nWxZONxNKbPEm1r-1Ae_-17" style="rounded=0;orthogonalLoop=1;jettySize=auto;html=1;exitX=0;exitY=0.5;exitDx=0;exitDy=0;entryX=1;entryY=0.5;entryDx=0;entryDy=0;dashed=1;" edge="1" parent="1" source="nWxZONxNKbPEm1r-1Ae_-1" target="gmeVBhwJLjxL1ppNdEiM-10">
          <mxGeometry relative="1" as="geometry" />
        </mxCell>
        <mxCell id="nWxZONxNKbPEm1r-1Ae_-1" value="게시판 정렬" style="rounded=1;whiteSpace=wrap;html=1;arcSize=40;fontColor=#000000;fillColor=#ffffc0;strokeColor=#ff0000;" vertex="1" parent="1">
          <mxGeometry x="400" y="545" width="120" height="40" as="geometry" />
        </mxCell>
        <mxCell id="nWxZONxNKbPEm1r-1Ae_-18" style="rounded=0;orthogonalLoop=1;jettySize=auto;html=1;exitX=0;exitY=0.5;exitDx=0;exitDy=0;entryX=1;entryY=0.5;entryDx=0;entryDy=0;dashed=1;" edge="1" parent="1" source="nWxZONxNKbPEm1r-1Ae_-2" target="gmeVBhwJLjxL1ppNdEiM-10">
          <mxGeometry relative="1" as="geometry" />
        </mxCell>
        <mxCell id="nWxZONxNKbPEm1r-1Ae_-2" value="게시판 검색" style="rounded=1;whiteSpace=wrap;html=1;arcSize=40;fontColor=#000000;fillColor=#ffffc0;strokeColor=#ff0000;" vertex="1" parent="1">
          <mxGeometry x="400" y="680" width="120" height="40" as="geometry" />
        </mxCell>
        <mxCell id="nWxZONxNKbPEm1r-1Ae_-19" style="rounded=0;orthogonalLoop=1;jettySize=auto;html=1;exitX=0;exitY=0.5;exitDx=0;exitDy=0;dashed=1;entryX=1;entryY=0.5;entryDx=0;entryDy=0;" edge="1" parent="1" source="nWxZONxNKbPEm1r-1Ae_-3" target="gmeVBhwJLjxL1ppNdEiM-11">
          <mxGeometry relative="1" as="geometry" />
        </mxCell>
        <mxCell id="nWxZONxNKbPEm1r-1Ae_-26" style="rounded=0;orthogonalLoop=1;jettySize=auto;html=1;exitX=1;exitY=0.5;exitDx=0;exitDy=0;entryX=0;entryY=0.5;entryDx=0;entryDy=0;endArrow=none;endFill=0;" edge="1" parent="1" source="nWxZONxNKbPEm1r-1Ae_-3" target="nWxZONxNKbPEm1r-1Ae_-21">
          <mxGeometry relative="1" as="geometry" />
        </mxCell>
        <mxCell id="nWxZONxNKbPEm1r-1Ae_-3" value="게시글 쓰기, 수정, 삭제" style="rounded=1;whiteSpace=wrap;html=1;arcSize=40;fontColor=#000000;fillColor=#ffffc0;strokeColor=#ff0000;" vertex="1" parent="1">
          <mxGeometry x="400" y="800" width="120" height="40" as="geometry" />
        </mxCell>
        <mxCell id="nWxZONxNKbPEm1r-1Ae_-20" style="rounded=0;orthogonalLoop=1;jettySize=auto;html=1;exitX=0;exitY=0.5;exitDx=0;exitDy=0;entryX=1;entryY=0.5;entryDx=0;entryDy=0;dashed=1;" edge="1" parent="1" source="nWxZONxNKbPEm1r-1Ae_-4" target="gmeVBhwJLjxL1ppNdEiM-11">
          <mxGeometry relative="1" as="geometry" />
        </mxCell>
        <mxCell id="nWxZONxNKbPEm1r-1Ae_-27" style="rounded=0;orthogonalLoop=1;jettySize=auto;html=1;exitX=1;exitY=0.5;exitDx=0;exitDy=0;entryX=0;entryY=0.5;entryDx=0;entryDy=0;endArrow=none;endFill=0;" edge="1" parent="1" source="nWxZONxNKbPEm1r-1Ae_-4" target="nWxZONxNKbPEm1r-1Ae_-21">
          <mxGeometry relative="1" as="geometry" />
        </mxCell>
        <mxCell id="nWxZONxNKbPEm1r-1Ae_-4" value="댓글 보기, 쓰기,&lt;br&gt;수정, 삭제" style="rounded=1;whiteSpace=wrap;html=1;arcSize=40;fontColor=#000000;fillColor=#ffffc0;strokeColor=#ff0000;" vertex="1" parent="1">
          <mxGeometry x="400" y="880" width="120" height="40" as="geometry" />
        </mxCell>
        <mxCell id="nWxZONxNKbPEm1r-1Ae_-21" value="DB" style="html=1;dropTarget=0;whiteSpace=wrap;" vertex="1" parent="1">
          <mxGeometry x="730" y="490" width="60" height="60" as="geometry" />
        </mxCell>
      </root>
    </mxGraphModel>
  </diagram>
</mxfile>
